<svg width="180" height="47" viewBox="0 0 180 47" fill="none" xmlns="http://www.w3.org/2000/svg">
<path d="M17.5522 13.3244H11.8209C10.6567 13.3244 9.67165 12.3407 9.67165 11.1782C9.67165 10.0157 10.6567 9.03198 11.8209 9.03198H17.5522C18.7164 9.03198 19.7015 10.0157 19.7015 11.1782C19.7015 12.3407 18.7164 13.3244 17.5522 13.3244Z" fill="white"/>
<path d="M62.2388 40.599C62.8657 41.1356 63.1343 41.9404 63.1343 42.8346C63.1343 43.7289 62.8657 44.4443 62.2388 44.9808C61.6119 45.5174 60.8955 45.8751 60 45.8751H37.7911C36.8955 45.8751 34.6567 45.8751 34.6567 45.8751C34.6567 45.8751 34.6567 43.6395 34.6567 42.7452V3.577C34.6567 2.68275 34.9254 1.52023 35.5522 0.894251C36.1791 0.268275 36.9851 0 37.8806 0C38.7761 0 39.4925 0.268275 40.1194 0.894251C40.7463 1.52023 41.1045 2.68275 41.1045 3.577V39.7048H59.9105C60.8955 39.7048 61.6119 40.0625 62.2388 40.599ZM95.3731 18.8687C96.8955 21.6409 97.7015 24.6813 97.7015 28.0795C97.7015 31.4776 96.8955 34.5181 95.3731 37.2009C93.8508 39.8836 91.791 42.0298 89.1045 43.55C86.5075 45.0703 83.5522 45.8751 80.3284 45.8751C77.1045 45.8751 74.2388 45.0703 71.5522 43.55C68.9552 42.0298 66.806 39.8836 65.2836 37.2009C63.7612 34.5181 62.9552 31.4776 62.9552 28.0795C62.9552 24.6813 63.7612 21.6409 65.2836 18.8687C66.806 16.0965 68.8657 13.9503 71.5522 12.4301C74.1493 10.9099 77.1045 10.105 80.3284 10.105C83.5522 10.105 86.4179 10.9099 89.1045 12.4301C91.7015 13.9503 93.8508 16.0965 95.3731 18.8687ZM91.4328 28.0795C91.4328 25.7544 90.9851 23.6082 90 21.7303C89.0149 19.8524 87.6716 18.4216 85.9702 17.4379C84.2687 16.4542 82.3881 15.9177 80.4179 15.9177C78.3582 15.9177 76.4776 16.4542 74.8657 17.4379C73.1642 18.4216 71.8209 19.9418 70.8358 21.7303C69.8507 23.6082 69.403 25.665 69.403 28.0795C69.403 30.4045 69.8507 32.4613 70.8358 34.2498C71.8209 36.0383 73.1642 37.4691 74.8657 38.5422C76.5672 39.5259 78.4478 40.0625 80.4179 40.0625C82.4776 40.0625 84.3582 39.5259 85.9702 38.5422C87.6716 37.5586 89.0149 36.1278 90 34.2498C90.8955 32.4613 91.4328 30.4045 91.4328 28.0795ZM133.881 18.8687C135.403 21.6409 136.209 24.6813 136.209 28.0795C136.209 31.4776 135.403 34.5181 133.881 37.2009C132.358 39.8836 130.299 42.0298 127.612 43.55C125.015 45.0703 122.06 45.8751 118.836 45.8751C115.612 45.8751 112.746 45.0703 110.06 43.55C107.463 42.0298 105.313 39.8836 103.791 37.2009C102.269 34.5181 101.463 31.4776 101.463 28.0795C101.463 24.6813 102.269 21.6409 103.791 18.8687C105.313 16.0965 107.373 13.9503 110.06 12.4301C112.657 10.9099 115.612 10.105 118.836 10.105C122.06 10.105 124.925 10.9099 127.612 12.4301C130.299 13.9503 132.358 16.0965 133.881 18.8687ZM129.94 28.0795C129.94 25.7544 129.493 23.6082 128.507 21.7303C127.522 19.8524 126.179 18.4216 124.478 17.4379C122.776 16.4542 120.896 15.9177 118.925 15.9177C116.866 15.9177 114.985 16.4542 113.373 17.4379C111.672 18.4216 110.328 19.9418 109.343 21.7303C108.358 23.6082 107.91 25.665 107.91 28.0795C107.91 30.4045 108.358 32.4613 109.343 34.2498C110.328 36.0383 111.672 37.4691 113.373 38.5422C115.075 39.5259 116.955 40.0625 118.925 40.0625C120.985 40.0625 122.866 39.5259 124.478 38.5422C126.179 37.5586 127.522 36.1278 128.507 34.2498C129.493 32.4613 129.94 30.4045 129.94 28.0795ZM143.373 0C142.478 0 141.761 0.268275 141.134 0.894251C140.507 1.52023 140.239 2.23563 140.239 3.12988V42.7452C140.239 43.6395 140.239 45.8751 140.239 45.8751C140.239 45.8751 142.478 45.8751 143.284 45.8751C144.179 45.8751 144.896 45.6068 145.522 44.9808C146.149 44.3549 146.418 43.6395 146.418 42.7452V3.12988C146.418 2.23563 146.149 1.52023 145.522 0.894251C144.985 0.268275 144.269 0 143.373 0ZM178.209 11.8935C177.582 11.2676 176.866 10.9993 175.97 10.9993C175.075 10.9993 174.358 11.2676 173.821 11.8935C173.194 12.5195 172.925 13.2349 172.925 14.1292V31.4776C172.925 34.3392 172.209 36.4855 170.866 37.9163C169.433 39.3471 167.463 40.0625 164.776 40.0625C159.403 40.0625 156.716 37.2009 156.716 31.4776V14.1292C156.716 13.2349 156.448 12.5195 155.821 11.8935C155.194 11.2676 154.478 10.9993 153.582 10.9993C152.687 10.9993 151.97 11.2676 151.433 11.8935C150.806 12.5195 150.537 13.2349 150.537 14.1292V31.4776C150.537 36.0383 151.791 39.5259 154.299 42.0298C156.806 44.5337 160.299 45.7857 164.866 45.7857C169.433 45.7857 173.015 44.5337 175.522 42.0298C178.03 39.5259 179.284 36.0383 179.284 31.4776V14.1292C179.104 13.2349 178.836 12.5195 178.209 11.8935Z" fill="white"/>
<path d="M18.8955 31.3882C19.3433 31.5671 19.7015 31.8354 20.0597 32.1036L28.3881 40.4202C29.6418 41.6721 29.6418 43.6395 28.3881 44.8914C27.1343 46.1434 25.1642 46.1434 23.9104 44.8914L15.5821 36.5749C15.2239 36.2172 14.9552 35.8595 14.8657 35.4124L13.1642 30.6728C12.8955 30.0468 13.5224 29.4209 14.1493 29.6891L18.8955 31.3882Z" fill="white"/>
<path d="M26.1493 0H3.22388C1.43284 0 0 1.4308 0 3.12988V42.6558V45.3385C0 45.6068 0.268657 45.8751 0.537313 45.8751H3.13433C3.22388 45.8751 3.31343 45.8751 3.40299 45.8751H14.3284C16.0299 45.8751 17.3731 44.5337 17.3731 42.8346V42.6558C17.3731 40.9567 16.0299 39.6153 14.3284 39.5259C14.3284 39.5259 8.77612 39.5259 6.98507 39.5259C6.71642 39.5259 6.44776 39.2576 6.44776 38.9894V6.79631C6.44776 6.52803 6.71642 6.34918 6.89552 6.34918H22.4776C22.7463 6.34918 22.9254 6.52803 22.9254 6.79631C22.9254 7.15401 22.9254 24.0554 22.9254 30.0468C22.9254 31.8353 24.3582 33.2661 26.1493 33.2661C27.9403 33.2661 29.3731 31.8353 29.3731 30.0468V3.12988C29.3731 1.4308 27.9403 0 26.1493 0Z" fill="white"/>
<path d="M17.5522 19.9418H11.8209C10.6567 19.9418 9.67165 18.9581 9.67165 17.7956C9.67165 16.6331 10.6567 15.6494 11.8209 15.6494H17.5522C18.7164 15.6494 19.7015 16.6331 19.7015 17.7956C19.7015 19.0476 18.7164 19.9418 17.5522 19.9418Z" fill="white"/>
<path d="M17.5522 26.6487H11.8209C10.6567 26.6487 9.67165 25.6651 9.67165 24.5025C9.67165 23.34 10.6567 22.3563 11.8209 22.3563H17.5522C18.7164 22.3563 19.7015 23.34 19.7015 24.5025C19.7015 25.6651 18.7164 26.6487 17.5522 26.6487Z" fill="white"/>
</svg>