<svg xmlns="http://www.w3.org/2000/svg" xmlns:xlink="http://www.w3.org/1999/xlink" x="0px" y="0px" viewBox="0 0 32 32" style="enable-background:new 0 0 32 32;" xml:space="preserve">
	<g >
		<path fill="#fff" d="M19,21.9c0.3,0.1,0.6,0.3,0.8,0.5l5.8,5.8c0.9,0.9,0.9,2.3,0,3.1l0,0c-0.9,0.9-2.3,0.9-3.1,0l-5.8-5.8c-0.2-0.2-0.4-0.5-0.5-0.8l-1.2-3.3c-0.1-0.3,0-0.6,0.3-0.7c0.1,0,0.3,0,0.4,0L19,21.9z"/>
		<path fill="#fff" d="M24,0H8C6.8,0,5.8,1,5.8,2.2v27.6l0,0v1.8c0,0.2,0.2,0.4,0.4,0.4c0,0,0,0,0,0H8c0.1,0,0.1,0,0.2,0h7.6c1.2,0,2.1-0.9,2.1-2.1v-0.1c0-1.2-0.9-2.2-2.1-2.2h-5.1c-0.2,0-0.4-0.2-0.4-0.4V4.7c0-0.2,0.2-0.3,0.3-0.3h10.9c0.2,0,0.3,0.1,0.3,0.3c0,0.2,0,12,0,16.2c0,1.2,1,2.2,2.2,2.2c0,0,0,0,0,0l0,0c1.2,0,2.2-1,2.2-2.2c0,0,0,0,0,0V2.2C26.2,1,25.2,0,24,0z"/>
		<path fill="#fff" d="M14,6.3h4c0.8,0,1.5,0.7,1.5,1.5l0,0c0,0.8-0.7,1.5-1.5,1.5h-4c-0.8,0-1.5-0.7-1.5-1.5l0,0C12.5,7,13.2,6.3,14,6.3z"/>
		<path fill="#fff" d="M14,10.9h4c0.8,0,1.5,0.7,1.5,1.5l0,0c0,0.8-0.7,1.5-1.5,1.5h-4c-0.8,0-1.5-0.7-1.5-1.5l0,0C12.5,11.6,13.2,10.9,14,10.9z"/>
		<path fill="#fff" d="M14,15.5h4c0.8,0,1.5,0.7,1.5,1.5l0,0c0,0.8-0.7,1.5-1.5,1.5h-4c-0.8,0-1.5-0.7-1.5-1.5l0,0C12.5,16.2,13.2,15.5,14,15.5z"/>
	</g>
</svg>